<?xml version="1.0" encoding="UTF-8"?><svg id="Layer_2" xmlns="http://www.w3.org/2000/svg" viewBox="0 0 811.17 136.32"><defs><style>.cls-1{fill:#5226f5;}</style></defs><g id="Layer_1-2"><g><path class="cls-1" d="M278.41,41.05c1.95-1.29,2.97-1.8,3.79-2.53,9.89-8.73,21.36-9.26,32.73-4.68,10.91,4.4,16.68,13.66,17.1,25.42,.62,17.47,.59,34.96,.94,52.44,.08,3.76-1.21,5.51-5.2,5.35-5.49-.22-11-.24-16.49,.01-4.08,.19-5.06-1.57-5.02-5.34,.16-13.83,.13-27.66,.01-41.49-.05-6.13-3.64-11.27-8.53-12.86-5.83-1.9-13.03-.65-15.91,3.92-2.1,3.34-3.48,7.66-3.62,11.6-.44,12.98-.3,25.99-.1,38.98,.06,3.97-1.29,5.35-5.18,5.18-5.32-.22-10.67-.28-15.99,.02-4.39,.24-5.79-1.39-5.75-5.75,.18-18.99,.08-37.99,.08-56.98,0-16.16,.11-32.33-.07-48.49-.05-4.23,1.1-6.11,5.63-5.82,5.31,.33,10.67,.31,15.99,0,4.3-.24,5.37,1.55,5.28,5.54-.22,9.66-.09,19.33-.06,28.99,0,1.78,.18,3.56,.34,6.48Z"/><path class="cls-1" d="M408,39.99c.35-2.2,.65-4.08,1.03-6.52,8.21,0,16.33-.12,24.44,.17,.87,.03,2.33,2.46,2.37,3.8,.22,8.16,.12,16.33,.12,24.49,0,16.66-.12,33.32,.08,49.98,.05,4.05-1.38,5.3-5.2,5.13-4.82-.21-9.66-.09-14.49-.03-4.36,.05-9.36,1.12-7.74-7.24-2.98,2.12-4.81,3.71-6.88,4.85-16.56,9.13-38.9,4.91-50.13-14.24-10.02-17.09-8.44-42.77,5.64-57.72,13.39-14.23,37.91-14.76,48.68-3.53,.39,.41,1.14,.48,2.08,.85Zm.55,35.69c.04-12.06-6.2-18.88-17.33-18.95-11.94-.07-19.27,6.93-19.3,18.43-.02,11.06,7.82,18.97,18.5,19.25,8.67,.23,19.39-7.62,18.12-18.73Z"/><path class="cls-1" d="M610.08,40.15c.33-2.55,.56-4.32,.86-6.69,7.89,0,15.66-.15,23.42,.19,1.03,.05,2.7,2.56,2.79,4,.34,5.47,.15,10.98,.15,16.47,0,18.97-.11,37.95,.08,56.92,.05,4.51-1.3,6.36-5.95,6.04-4.64-.32-9.32-.18-13.97-.04-4.32,.13-8.53,.39-6.66-7.38-3.35,2.29-5.35,3.9-7.57,5.12-15.81,8.78-38.33,4.82-49.7-14.25-11.72-19.65-7.86-47.06,9.13-61.15,12.4-10.29,33.56-10.94,44.69-.71,.56,.52,1.38,.76,2.73,1.47Zm.43,35.25c.02-11.88-6.41-18.13-17.71-18.8-11.42-.68-18.88,7.97-18.85,18.3,.03,11.39,7.38,19.38,18.1,19.45,11.04,.07,18.45-7.53,18.47-18.95Z"/><path class="cls-1" d="M811.08,77.85c0,17.49-.12,34.98,.09,52.46,.06,4.59-1.44,6.15-6.02,5.99-8.65-.29-17.32-.21-25.98-.03-3.67,.07-4.98-1.23-4.91-4.93,.19-9.82-.08-19.65,.12-29.48,.09-4.12-1.48-5.7-5.51-5.66-9.33,.11-18.66-.17-27.98,.09-4.46,.13-5.81-1.53-5.68-5.82,.25-8.49,.26-16.99,0-25.48-.14-4.45,1.19-6.26,5.91-6.1,9.15,.3,18.32-.02,27.48,.12,4.24,.07,5.91-1.52,5.8-5.89-.24-9.65,.05-19.32-.13-28.98-.07-3.59,.92-5.08,4.76-4.98,8.99,.23,17.99,.25,26.98,0,4.04-.12,5.16,1.42,5.14,5.22-.13,17.82-.06,35.64-.06,53.46Z"/><path class="cls-1" d="M179.86,85.29c.07,5.36,3.47,7.36,6.66,8.77,8.77,3.89,17.41,3.52,25.52-2.12,.92-.64,2.03-1.39,3.07-1.41,6.59-.13,13.19-.06,20.69-.06-6.39,14.19-15.19,24.8-30.13,27.55-18.95,3.49-35.73-1.04-47.59-17.48-7.34-10.18-8.17-21.89-6.33-33.84,5-32.58,42.09-43.88,66.22-29.35,16.4,9.87,21.66,26.5,19.76,43.7-.39,3.48-2.6,3.98-5.64,3.95-15.33-.11-30.66-.06-45.99-.03-1.95,0-3.91,.19-6.23,.31Zm31.35-19.22c-1.71-7.4-6.34-11.71-12.77-12.25-9.11-.77-15.9,2.41-18.53,8.48-1.34,3.09-.82,4.77,2.83,4.77,8.29,0,16.58,.04,24.87-.05,1.21-.01,2.41-.62,3.59-.95Z"/><path class="cls-1" d="M479.47,33.44c.42,2.76,.71,4.69,1.08,7.15,1.23-.65,2.22-.89,2.78-1.52,9.36-10.5,33.66-11.63,44.75,3.69,4.98,6.87,6.5,14.87,6.6,23.09,.19,15.33-.03,30.66,.13,45.98,.04,3.92-1.35,5.38-5.24,5.22-5.49-.21-11-.19-16.49,0-3.65,.12-4.99-1.25-4.95-4.94,.15-13.49,.13-26.99,.02-40.49-.09-10.24-5.3-15.23-15.12-14.82-7.6,.32-12.87,5.84-12.98,14.2-.18,13.49-.26,26.99,0,40.48,.09,4.54-1.52,5.8-5.77,5.6-5.82-.28-11.66-.18-17.49-.04-3.23,.07-4.31-1.18-4.3-4.43,.1-24.99,.11-49.98,0-74.98-.02-3.32,1.08-4.33,4.31-4.25,7.46,.19,14.93,.06,22.65,.06Z"/><path class="cls-1" d="M82.66,84.44c.96,11.49-3.12,20.19-11.69,26.43C48.8,127.03,11.29,120.4,2,87.77c-4.5-15.8-1.52-31.06,10.19-43.13,12.07-12.44,27.17-15.78,44.08-11.81,11.73,2.76,19.61,9.9,24.95,20.31,.45,.87,.68,1.85,.95,2.8,2.24,7.92,1.35,9.15-6.57,9.16-2.83,0-5.67-.13-8.5,.03-4.28,.25-7.77-.63-11.26-3.73-6.33-5.64-14.85-5.48-21.54-.59-6.08,4.45-8.76,13.48-6.11,20.58,2.91,7.82,10.11,12.92,18.23,11.58,3.96-.65,7.52-3.66,11.3-5.52,2.22-1.09,4.46-2.73,6.79-2.9,5.79-.42,11.63-.14,18.15-.14Z"/><path class="cls-1" d="M121.44,46.49c3.88-7.39,9.72-11.97,17.84-13.88,4.42-1.04,5.79,.31,5.69,4.54-.14,6.32-.14,12.66,0,18.98,.08,3.45-.94,5.12-4.76,5.24-5.8,.18-11.41,2.05-14.95,6.73-2.55,3.38-4.88,7.77-5.15,11.85-.71,10.78-.37,21.63-.19,32.45,.06,3.52-1.19,4.73-4.61,4.64-6.16-.16-12.32-.14-18.48-.01-3.2,.07-4.35-1.11-4.33-4.39,.11-24.97,.11-49.95,0-74.92-.01-3.21,.87-4.45,4.22-4.34,6.32,.22,12.66,.22,18.98,0,3.35-.12,4.45,1.14,4.21,4.35-.21,2.75-.04,5.52-.04,8.28l1.58,.48Z"/><path class="cls-1" d="M715.18,56.78c-5,0-10-.11-14.99,.04-2.8,.09-3.84-.94-3.81-3.75,.1-9.99,.1-19.99,0-29.98-.03-2.75,.93-3.89,3.75-3.86,9.99,.09,19.99,.09,29.98,0,2.78-.03,3.81,1,3.78,3.81-.11,9.99-.11,19.99,0,29.98,.03,2.77-.87,3.9-3.73,3.81-4.99-.16-9.99-.04-14.99-.04Z"/><path class="cls-1" d="M733.86,117.69c0,4.82-.09,9.65,.04,14.47,.07,2.63-.71,4.08-3.6,4.06-10.14-.06-20.29,.09-30.43-.19-1.18-.03-3.25-2.27-3.28-3.54-.27-9.97-.27-19.95,.01-29.92,.03-1.21,2.21-3.35,3.43-3.39,10.14-.27,20.29-.27,30.42,.01,1.17,.03,3.14,2.23,3.24,3.54,.39,4.96,.16,9.97,.16,14.95Z"/></g></g></svg>