<?xml version="1.0" encoding="UTF-8"?><svg id="Layer_2" xmlns="http://www.w3.org/2000/svg" viewBox="0 0 191.29 189.25"><defs><style>.cls-1{fill:#d1cfe4;}</style></defs><g id="Layer_1-2"><path class="cls-1" d="M95.47,119.75c-15.75,15.84-30.94,31.14-46.15,46.43-5.97,6-11.9,12.06-17.99,17.94-5.75,5.54-12.79,6.09-20,4.02-6.33-1.81-9.84-6.59-11.02-12.95-1.25-6.76,1.22-12.28,6.02-17.06,19.77-19.69,39.45-39.45,59.18-59.17,1.29-1.29,2.71-2.44,4.52-4.06-1.62-1.7-2.91-3.1-4.26-4.45C46.07,70.71,26.3,51.04,6.65,31.23-2.56,21.94-.32,7.67,11.04,1.9,18.06-1.67,26.14-.17,32.42,6.05c19.69,19.52,39.34,39.09,59.01,58.64,1.28,1.27,2.61,2.5,4.47,4.28,10.35-10.49,20.55-20.89,30.82-31.22,10.65-10.72,21.3-21.44,32.09-32.01,5.81-5.7,13.91-6.89,20.66-3.46,7.04,3.58,11.37,10.64,9.74,18.42-.89,4.24-3.42,8.71-6.47,11.84-18.9,19.37-38.15,38.39-57.32,57.5-1.29,1.28-2.84,2.3-5.37,4.31,4.32,3.85,8.04,6.88,11.43,10.23,17.84,17.63,35.57,35.36,53.39,53,4.8,4.75,7.35,10.25,6.12,17.03-1.23,6.74-5.04,11.7-11.68,13.62-7.65,2.2-14.79,.97-20.7-4.94-16.54-16.57-33.12-33.1-49.66-49.67-4.33-4.34-8.55-8.79-13.47-13.86Z"/></g></svg>